<?xml version="1.0" encoding="utf-8"?>
<!-- Generator: Adobe Illustrator 19.2.0, SVG Export Plug-In . SVG Version: 6.00 Build 0)  -->
<svg version="1.1" id="Layer_1" xmlns="http://www.w3.org/2000/svg" xmlns:xlink="http://www.w3.org/1999/xlink" x="0px" y="0px"
	 viewBox="0 0 161 168" style="enable-background:new 0 0 161 168;" xml:space="preserve">
<style type="text/css">
	.st0{fill:#3F7692;stroke:#AAAAAA;stroke-miterlimit:10;}
	.st1{fill:#FFFFFF;}
	.st2{fill:#999999;}
	.st3{fill:#3F7692;}
</style>
<path class="st0" d="M126.4,22l2.6-4.5l-17.3-10l-3,5.1c-4.4-1.6-8.9-2.9-13.6-3.8V0.5h-30V9c-5.2,1-10.3,2.5-15.1,4.5l-2.9-5
	l-17.3,10l2.8,4.9C13.1,38,0.5,61.3,0.5,87.5c0,44.2,35.8,80,80,80c44.2,0,80-35.8,80-80C160.5,60.4,147,36.5,126.4,22z"/>
<circle class="st1" cx="79.8" cy="86.5" r="56.5"/>
<g>
	<path class="st2" d="M37.5,75.5c1.7,0,3.1,0.8,4.1,2.4s1.6,4.5,1.6,8.5c0,4.1-0.5,6.9-1.6,8.5c-1.1,1.6-2.4,2.4-4.1,2.4
		c-1.7,0-3.1-0.8-4.1-2.4c-1.1-1.6-1.6-4.5-1.6-8.6c0-4,0.5-6.9,1.6-8.5S35.8,75.5,37.5,75.5z M37.5,78.9c-0.7,0-1.2,0.4-1.6,1.3
		s-0.6,3-0.6,6.2s0.2,5.4,0.6,6.2s0.9,1.3,1.6,1.3c0.7,0,1.2-0.4,1.6-1.3c0.4-0.9,0.6-3,0.6-6.2c0-3.3-0.2-5.4-0.6-6.2
		C38.7,79.3,38.2,78.9,37.5,78.9z"/>
	<path class="st2" d="M51.2,75.5c1.7,0,3.1,0.8,4.1,2.4s1.6,4.5,1.6,8.5c0,4.1-0.5,6.9-1.6,8.5c-1.1,1.6-2.4,2.4-4.1,2.4
		c-1.7,0-3.1-0.8-4.1-2.4c-1.1-1.6-1.6-4.5-1.6-8.6c0-4,0.5-6.9,1.6-8.5S49.5,75.5,51.2,75.5z M51.2,78.9c-0.7,0-1.2,0.4-1.6,1.3
		s-0.6,3-0.6,6.2s0.2,5.4,0.6,6.2s0.9,1.3,1.6,1.3c0.7,0,1.2-0.4,1.6-1.3c0.4-0.9,0.6-3,0.6-6.2c0-3.3-0.2-5.4-0.6-6.2
		C52.4,79.3,51.9,78.9,51.2,78.9z"/>
	<path d="M60.5,85.6v-4.1h3.4v4.1H60.5z M60.5,97v-4.1h3.4V97H60.5z"/>
	<path class="st2" d="M73.1,75.5c1.7,0,3.1,0.8,4.1,2.4s1.6,4.5,1.6,8.5c0,4.1-0.5,6.9-1.6,8.5c-1.1,1.6-2.4,2.4-4.1,2.4
		c-1.7,0-3.1-0.8-4.1-2.4c-1.1-1.6-1.6-4.5-1.6-8.6c0-4,0.5-6.9,1.6-8.5S71.4,75.5,73.1,75.5z M73.1,78.9c-0.7,0-1.2,0.4-1.6,1.3
		s-0.6,3-0.6,6.2s0.2,5.4,0.6,6.2s0.9,1.3,1.6,1.3c0.7,0,1.2-0.4,1.6-1.3c0.4-0.9,0.6-3,0.6-6.2c0-3.3-0.2-5.4-0.6-6.2
		C74.3,79.3,73.7,78.9,73.1,78.9z"/>
	<path class="st2" d="M86.7,75.5c1.7,0,3.1,0.8,4.1,2.4s1.6,4.5,1.6,8.5c0,4.1-0.5,6.9-1.6,8.5c-1.1,1.6-2.4,2.4-4.1,2.4
		c-1.7,0-3.1-0.8-4.1-2.4c-1.1-1.6-1.6-4.5-1.6-8.6c0-4,0.5-6.9,1.6-8.5S85,75.5,86.7,75.5z M86.7,78.9c-0.7,0-1.2,0.4-1.6,1.3
		s-0.6,3-0.6,6.2s0.2,5.4,0.6,6.2s0.9,1.3,1.6,1.3c0.7,0,1.2-0.4,1.6-1.3c0.4-0.9,0.6-3,0.6-6.2c0-3.3-0.2-5.4-0.6-6.2
		C88,79.3,87.4,78.9,86.7,78.9z"/>
	<path d="M96.1,85.6v-4.1h3.4v4.1H96.1z M96.1,97v-4.1h3.4V97H96.1z"/>
	<path class="st3" d="M108.6,75.5c1.7,0,3.1,0.8,4.1,2.4s1.6,4.5,1.6,8.5c0,4.1-0.5,6.9-1.6,8.5c-1.1,1.6-2.4,2.4-4.1,2.4
		c-1.7,0-3.1-0.8-4.1-2.4c-1.1-1.6-1.6-4.5-1.6-8.6c0-4,0.5-6.9,1.6-8.5S106.9,75.5,108.6,75.5z M108.6,78.9c-0.7,0-1.2,0.4-1.6,1.3
		c-0.4,0.9-0.6,3-0.6,6.2s0.2,5.4,0.6,6.2c0.4,0.9,0.9,1.3,1.6,1.3c0.7,0,1.2-0.4,1.6-1.3c0.4-0.9,0.6-3,0.6-6.2
		c0-3.3-0.2-5.4-0.6-6.2S109.3,78.9,108.6,78.9z"/>
	<path class="st3" d="M116.6,91.5l3.4-0.4c0.1,0.9,0.4,1.7,0.9,2.2s1,0.8,1.6,0.8c0.7,0,1.3-0.3,1.8-1c0.5-0.7,0.7-1.7,0.7-3.2
		c0-1.3-0.2-2.3-0.7-3c-0.5-0.6-1.1-1-1.9-1c-1,0-1.8,0.5-2.6,1.6L117,87l1.7-11.2h8.9v3.9h-6.3l-0.5,3.6c0.8-0.5,1.5-0.7,2.3-0.7
		c1.4,0,2.6,0.5,3.5,1.6c1.2,1.4,1.8,3.2,1.8,5.5c0,1.9-0.5,3.6-1.6,5.2c-1,1.6-2.5,2.4-4.5,2.4c-1.6,0-2.9-0.5-3.9-1.5
		C117.5,94.9,116.8,93.4,116.6,91.5z"/>
</g>
</svg>
