<svg id="Layer_1" xmlns="http://www.w3.org/2000/svg" viewBox="0 0 161 168"><style>.st0{fill:#3f7692;stroke:#AAA;stroke-miterlimit:10}.st1{fill:#FFF}.st2{fill:#999}.st3{fill:#3f7692}</style><path class="st0" d="M126.4 22l2.6-4.5-17.3-10-3 5.1c-4.4-1.6-8.9-2.9-13.6-3.8V.5h-30V9c-5.2 1-10.3 2.5-15.1 4.5l-2.9-5-17.3 10 2.8 4.9C13.1 38 .5 61.3.5 87.5c0 44.2 35.8 80 80 80s80-35.8 80-80c0-27.1-13.5-51-34.1-65.5z"/><circle class="st1" cx="79.8" cy="86.5" r="56.5"/><path class="st2" d="M37.5 75.5c1.7 0 3.1.8 4.1 2.4s1.6 4.5 1.6 8.5c0 4.1-.5 6.9-1.6 8.5-1.1 1.6-2.4 2.4-4.1 2.4-1.7 0-3.1-.8-4.1-2.4-1.1-1.6-1.6-4.5-1.6-8.6 0-4 .5-6.9 1.6-8.5s2.4-2.3 4.1-2.3zm0 3.4c-.7 0-1.2.4-1.6 1.3s-.6 3-.6 6.2.2 5.4.6 6.2.9 1.3 1.6 1.3c.7 0 1.2-.4 1.6-1.3.4-.9.6-3 .6-6.2 0-3.3-.2-5.4-.6-6.2-.4-.9-.9-1.3-1.6-1.3zM51.2 75.5c1.7 0 3.1.8 4.1 2.4s1.6 4.5 1.6 8.5c0 4.1-.5 6.9-1.6 8.5-1.1 1.6-2.4 2.4-4.1 2.4-1.7 0-3.1-.8-4.1-2.4-1.1-1.6-1.6-4.5-1.6-8.6 0-4 .5-6.9 1.6-8.5s2.4-2.3 4.1-2.3zm0 3.4c-.7 0-1.2.4-1.6 1.3s-.6 3-.6 6.2.2 5.4.6 6.2.9 1.3 1.6 1.3c.7 0 1.2-.4 1.6-1.3.4-.9.6-3 .6-6.2 0-3.3-.2-5.4-.6-6.2-.4-.9-.9-1.3-1.6-1.3z"/><path d="M60.5 85.6v-4.1h3.4v4.1h-3.4zm0 11.4v-4.1h3.4V97h-3.4z"/><path class="st2" d="M73.1 75.5c1.7 0 3.1.8 4.1 2.4s1.6 4.5 1.6 8.5c0 4.1-.5 6.9-1.6 8.5-1.1 1.6-2.4 2.4-4.1 2.4-1.7 0-3.1-.8-4.1-2.4-1.1-1.6-1.6-4.5-1.6-8.6 0-4 .5-6.9 1.6-8.5s2.4-2.3 4.1-2.3zm0 3.4c-.7 0-1.2.4-1.6 1.3s-.6 3-.6 6.2.2 5.4.6 6.2.9 1.3 1.6 1.3c.7 0 1.2-.4 1.6-1.3.4-.9.6-3 .6-6.2 0-3.3-.2-5.4-.6-6.2-.4-.9-1-1.3-1.6-1.3zM86.7 75.5c1.7 0 3.1.8 4.1 2.4s1.6 4.5 1.6 8.5c0 4.1-.5 6.9-1.6 8.5-1.1 1.6-2.4 2.4-4.1 2.4-1.7 0-3.1-.8-4.1-2.4-1.1-1.6-1.6-4.5-1.6-8.6 0-4 .5-6.9 1.6-8.5s2.4-2.3 4.1-2.3zm0 3.4c-.7 0-1.2.4-1.6 1.3s-.6 3-.6 6.2.2 5.4.6 6.2.9 1.3 1.6 1.3c.7 0 1.2-.4 1.6-1.3.4-.9.6-3 .6-6.2 0-3.3-.2-5.4-.6-6.2-.3-.9-.9-1.3-1.6-1.3z"/><path d="M96.1 85.6v-4.1h3.4v4.1h-3.4zm0 11.4v-4.1h3.4V97h-3.4z"/><path class="st3" d="M108.6 75.5c1.7 0 3.1.8 4.1 2.4s1.6 4.5 1.6 8.5c0 4.1-.5 6.9-1.6 8.5-1.1 1.6-2.4 2.4-4.1 2.4-1.7 0-3.1-.8-4.1-2.4-1.1-1.6-1.6-4.5-1.6-8.6 0-4 .5-6.9 1.6-8.5s2.4-2.3 4.1-2.3zm0 3.4c-.7 0-1.2.4-1.6 1.3-.4.9-.6 3-.6 6.2s.2 5.4.6 6.2c.4.9.9 1.3 1.6 1.3.7 0 1.2-.4 1.6-1.3.4-.9.6-3 .6-6.2 0-3.3-.2-5.4-.6-6.2s-.9-1.3-1.6-1.3zM116.6 91.5l3.4-.4c.1.9.4 1.7.9 2.2s1 .8 1.6.8c.7 0 1.3-.3 1.8-1s.7-1.7.7-3.2c0-1.3-.2-2.3-.7-3-.5-.6-1.1-1-1.9-1-1 0-1.8.5-2.6 1.6L117 87l1.7-11.2h8.9v3.9h-6.3l-.5 3.6c.8-.5 1.5-.7 2.3-.7 1.4 0 2.6.5 3.5 1.6 1.2 1.4 1.8 3.2 1.8 5.5 0 1.9-.5 3.6-1.6 5.2-1 1.6-2.5 2.4-4.5 2.4-1.6 0-2.9-.5-3.9-1.5-.9-.9-1.6-2.4-1.8-4.3z"/></svg>