<svg xmlns="http://www.w3.org/2000/svg" version="1.2" baseProfile="tiny" width="25" height="25" viewBox="0 0 25 25"><circle fill="#2E6380" cx="12.5" cy="12.5" r="12.5"/><path fill="none" d="M5.72 5.83c-1.1.91-.47 1.62.41 2C6.71 7 7.4 6.46 8.21 6.11c-.41-.84-1.06-1.46-2.49-.28zm5.09 7.28c-.7-.36-1.39-1.16-1.99-1.19-.6-.03-1.1.66-1.54 1.14-.24.26-.27.43-.27.43 0 .01-.02.02.13.1.31.16 1.13.26 2.01.27 1.15.01 1.77-.08 2.52-.17-.29-.19-.56-.42-.86-.58zm1.81 3.59c-1.24 0-2.03.6-2.57 1.2.76.02 1.37.44 1.77.99.39.53.64 1.19.81 1.84.17-.66.4-1.31.8-1.84.4-.55 1.01-.94 1.76-.98-.54-.6-1.32-1.21-2.57-1.21zm5.35-3.64c-.44-.47-.94-1.17-1.54-1.14-.6.03-1.31.82-2.01 1.19-.31.16-.57.39-.86.58.76.08 1.38.19 2.54.18.89-.01 1.7-.13 2.01-.28.15-.08.13-.09.13-.1 0-.01-.02-.17-.27-.43zm1.55-7.23c-1.43-1.18-2.08-.57-2.49.28.81.35 1.51.89 2.09 1.73.88-.39 1.51-1.09.4-2.01z"/><path fill="#EDAA22" d="M19.93 9.36c1.27-.5 2.87-2.7.85-4.44-3.28-2.81-4.77.16-5.06.74-.01.02-.02.04-.02.05-.9-.17-1.92-.21-3.07-.21s-2.17.04-3.07.21c-.02-.01-.02-.03-.03-.05-.29-.58-1.78-3.55-5.06-.74-2.03 1.73-.43 3.94.84 4.44-.23.57-.44 1.22-.63 1.96-1.32 5.27-.88 5.69 0 6.69s1.44 1.31 2.06 1.63c.63.31 1.95.31 2.43 1.19.48.88 1.88 1.92 3.44 1.92s2.97-1.04 3.44-1.91c.47-.87 1.8-.87 2.43-1.19.63-.31 1.19-.62 2.06-1.63.88-1 1.32-1.42 0-6.69-.17-.76-.38-1.41-.61-1.97zM6.12 7.84c-.87-.39-1.5-1.09-.4-2.01 1.43-1.18 2.08-.56 2.49.28-.81.35-1.5.89-2.09 1.73zm3.03 6.02c-.88-.01-1.7-.11-2.01-.27-.15-.08-.13-.09-.13-.1 0 0 .02-.17.27-.43.44-.47.94-1.17 1.54-1.14.6.03 1.3.82 1.99 1.19.3.16.57.39.86.58-.76.09-1.37.18-2.52.17zm4.28 5.03c-.39.53-.62 1.19-.8 1.84-.17-.66-.42-1.31-.81-1.84-.41-.55-1.01-.97-1.77-.99.54-.6 1.33-1.2 2.57-1.2 1.24 0 2.03.61 2.57 1.22-.75.03-1.36.43-1.76.97zm4.67-5.3c-.31.16-1.12.28-2.01.28-1.16.01-1.78-.1-2.54-.18.3-.19.56-.42.86-.58.7-.36 1.4-1.16 2.01-1.19.61-.03 1.1.67 1.55 1.14.25.26.27.43.27.43s.02.02-.14.1zm-1.07-7.48c.41-.84 1.06-1.46 2.49-.28 1.1.91.47 1.62-.4 2-.59-.83-1.28-1.37-2.09-1.72z"/></svg>