<?xml version="1.0" encoding="utf-8"?>
<!-- Generator: Adobe Illustrator 19.2.0, SVG Export Plug-In . SVG Version: 6.00 Build 0)  -->
<svg version="1.1" id="Layer_1" xmlns="http://www.w3.org/2000/svg" xmlns:xlink="http://www.w3.org/1999/xlink" x="0px" y="0px"
	 viewBox="0 0 24 32" style="enable-background:new 0 0 24 32;" xml:space="preserve">
<style type="text/css">
	.st0{fill:#2E6380;}
	.st1{fill:none;}
	.st2{fill:#EDAA22;}
</style>
<rect class="st0" width="24" height="32"/>
<path class="st1" d="M5.7,9.8c-1.1,0.9-0.5,1.6,0.4,2c0.6-0.8,1.3-1.3,2.1-1.7C7.8,9.3,7.2,8.7,5.7,9.8z M10.8,17.1
	c-0.7-0.4-1.4-1.2-2-1.2S7.7,16.6,7.3,17C7,17.3,7,17.5,7,17.5s0,0,0.1,0.1c0.3,0.2,1.1,0.3,2,0.3c1.1,0,1.8-0.1,2.5-0.2
	C11.4,17.5,11.1,17.3,10.8,17.1z M12.6,20.7c-1.2,0-2,0.6-2.6,1.2c0.8,0,1.4,0.4,1.8,1c0.4,0.5,0.6,1.2,0.8,1.8
	c0.2-0.7,0.4-1.3,0.8-1.8c0.4-0.5,1-0.9,1.8-1C14.7,21.3,13.9,20.7,12.6,20.7z M18,17.1c-0.4-0.5-0.9-1.2-1.5-1.1
	c-0.6,0-1.3,0.8-2,1.2c-0.3,0.2-0.6,0.4-0.9,0.6c0.8,0.1,1.4,0.2,2.5,0.2c0.9,0,1.7-0.1,2-0.3c0.1-0.1,0.1-0.1,0.1-0.1
	S18.2,17.3,18,17.1z M19.5,9.8c-1.4-1.2-2.1-0.6-2.5,0.3c0.8,0.3,1.5,0.9,2.1,1.7C20,11.5,20.6,10.8,19.5,9.8z"/>
<path class="st2" d="M19.4,11.9c1.3-0.5,2.9-2.7,0.9-4.4c-3.3-2.8-4.8,0.2-5.1,0.7c0,0,0,0,0,0.1c-0.9-0.2-1.9-0.2-3.1-0.2
	S9.9,8.1,9,8.3c0,0,0,0,0-0.1C8.7,7.6,7.3,4.6,4,7.4c-2.1,1.8-0.5,4,0.8,4.5c-0.2,0.6-0.4,1.2-0.6,2c-1.3,5.3-0.9,5.7,0,6.7
	s1.4,1.3,2.1,1.6c0.6,0.3,1.9,0.3,2.4,1.2s1.9,1.9,3.4,1.9s3-1,3.4-1.9c0.5-0.9,1.8-0.9,2.4-1.2c0.6-0.3,1.2-0.6,2.1-1.6
	s1.3-1.4,0-6.7C19.9,13.1,19.7,12.4,19.4,11.9z M5.6,10.3c-0.9-0.4-1.5-1.1-0.4-2c1.4-1.2,2.1-0.6,2.5,0.3C6.9,9,6.2,9.5,5.6,10.3z
	 M8.6,16.4c-0.9,0-1.7-0.1-2-0.3C6.5,16,6.5,16,6.5,16s0-0.2,0.3-0.4c0.4-0.5,0.9-1.2,1.5-1.1s1.3,0.8,2,1.2
	c0.3,0.2,0.6,0.4,0.9,0.6C10.4,16.3,9.8,16.4,8.6,16.4z M12.9,21.4c-0.4,0.5-0.6,1.2-0.8,1.8c-0.2-0.7-0.4-1.3-0.8-1.8
	c-0.4-0.5-1-1-1.8-1c0.5-0.6,1.3-1.2,2.6-1.2s2,0.6,2.6,1.2C13.9,20.5,13.3,20.9,12.9,21.4z M17.6,16.1c-0.3,0.2-1.1,0.3-2,0.3
	c-1.2,0-1.8-0.1-2.5-0.2c0.3-0.2,0.6-0.4,0.9-0.6c0.7-0.4,1.4-1.2,2-1.2s1.1,0.7,1.5,1.1c0.2,0.3,0.3,0.4,0.3,0.4S17.8,16,17.6,16.1
	z M16.5,8.6c0.4-0.8,1.1-1.5,2.5-0.3c1.1,0.9,0.5,1.6-0.4,2C18,9.5,17.3,9,16.5,8.6z"/>
</svg>
