<svg id="Layer_1" xmlns="http://www.w3.org/2000/svg" viewBox="0 0 24 32"><style>.st0{fill:#2e6380}.st1{fill:none}.st2{fill:#edaa22}</style><path class="st0" d="M0 0h24v32H0z"/><path class="st1" d="M5.7 9.8c-1.1.9-.5 1.6.4 2 .6-.8 1.3-1.3 2.1-1.7-.4-.8-1-1.4-2.5-.3zm5.1 7.3c-.7-.4-1.4-1.2-2-1.2s-1.1.7-1.5 1.1c-.3.3-.3.5-.3.5l.1.1c.3.2 1.1.3 2 .3 1.1 0 1.8-.1 2.5-.2-.2-.2-.5-.4-.8-.6zm1.8 3.6c-1.2 0-2 .6-2.6 1.2.8 0 1.4.4 1.8 1 .4.5.6 1.2.8 1.8.2-.7.4-1.3.8-1.8s1-.9 1.8-1c-.5-.6-1.3-1.2-2.6-1.2zm5.4-3.6c-.4-.5-.9-1.2-1.5-1.1-.6 0-1.3.8-2 1.2l-.9.6c.8.1 1.4.2 2.5.2.9 0 1.7-.1 2-.3l.1-.1s0-.3-.2-.5zm1.5-7.3c-1.4-1.2-2.1-.6-2.5.3.8.3 1.5.9 2.1 1.7.9-.3 1.5-1 .4-2z"/><path class="st2" d="M19.4 11.9c1.3-.5 2.9-2.7.9-4.4-3.3-2.8-4.8.2-5.1.7v.1c-.9-.2-1.9-.2-3.1-.2s-2.2 0-3.1.2v-.1c-.3-.6-1.7-3.6-5-.8-2.1 1.8-.5 4 .8 4.5-.2.6-.4 1.2-.6 2-1.3 5.3-.9 5.7 0 6.7s1.4 1.3 2.1 1.6c.6.3 1.9.3 2.4 1.2s1.9 1.9 3.4 1.9 3-1 3.4-1.9c.5-.9 1.8-.9 2.4-1.2.6-.3 1.2-.6 2.1-1.6s1.3-1.4 0-6.7c-.1-.8-.3-1.5-.6-2zM5.6 10.3c-.9-.4-1.5-1.1-.4-2 1.4-1.2 2.1-.6 2.5.3-.8.4-1.5.9-2.1 1.7zm3 6.1c-.9 0-1.7-.1-2-.3l-.1-.1s0-.2.3-.4c.4-.5.9-1.2 1.5-1.1s1.3.8 2 1.2l.9.6c-.8 0-1.4.1-2.6.1zm4.3 5c-.4.5-.6 1.2-.8 1.8-.2-.7-.4-1.3-.8-1.8s-1-1-1.8-1c.5-.6 1.3-1.2 2.6-1.2s2 .6 2.6 1.2c-.8.1-1.4.5-1.8 1zm4.7-5.3c-.3.2-1.1.3-2 .3-1.2 0-1.8-.1-2.5-.2l.9-.6c.7-.4 1.4-1.2 2-1.2s1.1.7 1.5 1.1c.2.3.3.4.3.4s0 .1-.2.2zm-1.1-7.5c.4-.8 1.1-1.5 2.5-.3 1.1.9.5 1.6-.4 2-.6-.8-1.3-1.3-2.1-1.7z"/></svg>